ffmpeg started on 2026-01-13 at 10:48:32
Report written to "D:\Convert\FFMetrics\reports\ssim_report-6.txt"
Log level: 32
Command line:
ffmpeg -hide_banner -nostdin -r 24000/1001 -i "F:\\Convert\\files\\[DC] Make Heroine ga Oosugiru - 07_Telegram_HEVC(122).mkv" -r 24000/1001 -i "F:\\Convert\\files\\[DC] Make Heroine ga Oosugiru - 07_Telegram.mp4" -lavfi "[0:v]settb=AVTB,setpts=PTS-STARTPTS,format=pix_fmts=yuv420p10le,fps=24000/1001,scale=1920:1080:flags=lanczos:param0=3:out_range=limited:out_color_matrix=bt709:out_chroma_loc=left,setsar=1/1,setdar=(1920/1080)*(1/1),colorspace=format=yuv420p10:range=tv:primaries=bt709:trc=bt709:space=bt709:fast=0[main];[1:v]settb=AVTB,setpts=PTS-STARTPTS,format=pix_fmts=yuv420p,fps=24000/1001,scale=1920:1080:flags=lanczos:param0=3:out_range=limited:out_color_matrix=bt709:out_chroma_loc=left,setsar=1.000,setdar=1.778,colorspace=format=yuv420p:range=tv:primaries=bt709:trc=bt709:space=bt709:fast=0[ref];[main][ref]ssim=eof_action=endall:stats_file='D\\:/Convert/FFMetrics/logs/ssim_logfile-6.txt'" -f null -
Input #0, matroska,webm, from 'F:\Convert\files\[DC] Make Heroine ga Oosugiru - 07_Telegram_HEVC(122).mkv':
  Metadata:
    COMPATIBLE_BRANDS: isomiso2avc1mp41
    MAJOR_BRAND     : isom
    MINOR_VERSION   : 512
    ENCODER         : Lavf61.7.100
  Duration: 00:24:06.79, start: -0.021000, bitrate: 985 kb/s
  Stream #0:0: Video: hevc (Main 10), yuv420p10le(tv, bt709, progressive), 1920x1080 [SAR 1:1 DAR 16:9], 23.98 fps, 23.98 tbr, 1k tbn (default)
      Metadata:
        HANDLER_NAME    : VideoHandler
        VENDOR_ID       : [0][0][0][0]
        ENCODER         : Lavc61.19.100 libx265
        BPS             : 788604
        DURATION        : 00:24:06.569708333
        NUMBER_OF_FRAMES: 34683
        NUMBER_OF_BYTES : 142596277
        _STATISTICS_WRITING_APP: mkvpropedit v94.0 ('Initiate') 64-bit
        _STATISTICS_WRITING_DATE_UTC: 2026-01-12 16:32:17
        _STATISTICS_TAGS: BPS DURATION NUMBER_OF_FRAMES NUMBER_OF_BYTES
  Stream #0:1: Audio: aac (LC), 48000 Hz, stereo, fltp (default)
      Metadata:
        HANDLER_NAME    : SoundHandler
        VENDOR_ID       : [0][0][0][0]
        ENCODER         : Lavc61.19.100 aac
        BPS             : 193194
        DURATION        : 00:24:06.784000000
        NUMBER_OF_FRAMES: 67819
        NUMBER_OF_BYTES : 34938755
        _STATISTICS_WRITING_APP: mkvpropedit v94.0 ('Initiate') 64-bit
        _STATISTICS_WRITING_DATE_UTC: 2026-01-12 16:32:17
        _STATISTICS_TAGS: BPS DURATION NUMBER_OF_FRAMES NUMBER_OF_BYTES
Input #1, mov,mp4,m4a,3gp,3g2,mj2, from 'F:\Convert\files\[DC] Make Heroine ga Oosugiru - 07_Telegram.mp4':
  Metadata:
    major_brand     : isom
    minor_version   : 512
    compatible_brands: isomiso2avc1mp41
    encoder         : Lavf60.16.100
  Duration: 00:24:06.74, start: 0.000000, bitrate: 3764 kb/s
  Stream #1:0[0x1](und): Video: h264 (High) (avc1 / 0x31637661), yuv420p(tv, bt709, progressive), 1920x1080 [SAR 1:1 DAR 16:9], 3616 kb/s, 23.98 fps, 23.98 tbr, 24k tbn (default)
      Metadata:
        handler_name    : VideoHandler
        vendor_id       : [0][0][0][0]
        encoder         : Lavc60.31.102 h264_qsv
  Stream #1:1[0x2](und): Audio: aac (HE-AACv2) (mp4a / 0x6134706D), 48000 Hz, stereo, fltp, 144 kb/s (default)
      Metadata:
        handler_name    : SoundHandler
        vendor_id       : [0][0][0][0]
Stream mapping:
  Stream #0:0 (hevc) -> settb:default
  Stream #1:0 (h264) -> settb:default
  ssim:default -> Stream #0:0 (wrapped_avframe)
  Stream #0:1 -> #0:1 (aac (native) -> pcm_s16le (native))
Output #0, null, to 'pipe:':
  Metadata:
    COMPATIBLE_BRANDS: isomiso2avc1mp41
    MAJOR_BRAND     : isom
    MINOR_VERSION   : 512
    encoder         : Lavf61.7.100
  Stream #0:0: Video: wrapped_avframe, yuv420p10le(tv, bt709, progressive), 1920x1080 [SAR 1:1 DAR 16:9], q=2-31, 200 kb/s, 23.98 fps, 23.98 tbn
      Metadata:
        encoder         : Lavc61.19.100 wrapped_avframe
  Stream #0:1: Audio: pcm_s16le, 48000 Hz, stereo, s16, 1536 kb/s (default)
      Metadata:
        HANDLER_NAME    : SoundHandler
        VENDOR_ID       : [0][0][0][0]
        _STATISTICS_TAGS: BPS DURATION NUMBER_OF_FRAMES NUMBER_OF_BYTES
        BPS             : 193194
        DURATION        : 00:24:06.784000000
        NUMBER_OF_FRAMES: 67819
        NUMBER_OF_BYTES : 34938755
        _STATISTICS_WRITING_APP: mkvpropedit v94.0 ('Initiate') 64-bit
        _STATISTICS_WRITING_DATE_UTC: 2026-01-12 16:32:17
        encoder         : Lavc61.19.100 pcm_s16le
frame=  128 fps=0.0 q=-0.0 size=N/A time=00:00:05.33 bitrate=N/A speed=10.3x    frame=  315 fps=301 q=-0.0 size=N/A time=00:00:13.13 bitrate=N/A speed=12.6x    frame=  490 fps=315 q=-0.0 size=N/A time=00:00:20.43 bitrate=N/A speed=13.1x    frame=  674 fps=326 q=-0.0 size=N/A time=00:00:28.11 bitrate=N/A speed=13.6x    frame=  866 fps=334 q=-0.0 size=N/A time=00:00:36.11 bitrate=N/A speed=13.9x    frame=  995 fps=321 q=-0.0 size=N/A time=00:00:41.49 bitrate=N/A speed=13.4x    frame= 1150 fps=318 q=-0.0 size=N/A time=00:00:47.96 bitrate=N/A speed=13.3x    frame= 1263 fps=305 q=-0.0 size=N/A time=00:00:52.67 bitrate=N/A speed=12.7x    frame= 1411 fps=304 q=-0.0 size=N/A time=00:00:58.85 bitrate=N/A speed=12.7x    frame= 1548 fps=300 q=-0.0 size=N/A time=00:01:04.56 bitrate=N/A speed=12.5x    frame= 1683 fps=297 q=-0.0 size=N/A time=00:01:10.19 bitrate=N/A speed=12.4x    frame= 1865 fps=301 q=-0.0 size=N/A time=00:01:17.78 bitrate=N/A speed=12.5x    frame= 2030 fps=302 q=-0.0 size=N/A time=00:01:24.66 bitrate=N/A speed=12.6x    frame= 2132 fps=295 q=-0.0 size=N/A time=00:01:28.92 bitrate=N/A speed=12.3x    frame= 2281 fps=295 q=-0.0 size=N/A time=00:01:35.13 bitrate=N/A speed=12.3x    frame= 2382 fps=288 q=-0.0 size=N/A time=00:01:39.34 bitrate=N/A speed=  12x    frame= 2506 fps=286 q=-0.0 size=N/A time=00:01:44.52 bitrate=N/A speed=11.9x    frame= 2659 fps=286 q=-0.0 size=N/A time=00:01:50.90 bitrate=N/A speed=11.9x    frame= 2830 fps=289 q=-0.0 size=N/A time=00:01:58.03 bitrate=N/A speed=  12x    frame= 3007 fps=291 q=-0.0 size=N/A time=00:02:05.41 bitrate=N/A speed=12.1x    frame= 3197 fps=295 q=-0.0 size=N/A time=00:02:13.34 bitrate=N/A speed=12.3x    frame= 3371 fps=297 q=-0.0 size=N/A time=00:02:20.59 bitrate=N/A speed=12.4x    frame= 3559 fps=300 q=-0.0 size=N/A time=00:02:28.43 bitrate=N/A speed=12.5x    frame= 3731 fps=301 q=-0.0 size=N/A time=00:02:35.61 bitrate=N/A speed=12.6x    frame= 3892 fps=302 q=-0.0 size=N/A time=00:02:42.32 bitrate=N/A speed=12.6x    frame= 4074 fps=304 q=-0.0 size=N/A time=00:02:49.91 bitrate=N/A speed=12.7x    frame= 4253 fps=305 q=-0.0 size=N/A time=00:02:57.38 bitrate=N/A speed=12.7x    frame= 4433 fps=307 q=-0.0 size=N/A time=00:03:04.89 bitrate=N/A speed=12.8x    frame= 4598 fps=307 q=-0.0 size=N/A time=00:03:11.77 bitrate=N/A speed=12.8x    frame= 4764 fps=308 q=-0.0 size=N/A time=00:03:18.69 bitrate=N/A speed=12.8x    frame= 4947 fps=309 q=-0.0 size=N/A time=00:03:26.33 bitrate=N/A speed=12.9x    frame= 5137 fps=311 q=-0.0 size=N/A time=00:03:34.25 bitrate=N/A speed=  13x    frame= 5322 fps=313 q=-0.0 size=N/A time=00:03:41.97 bitrate=N/A speed=  13x    frame= 5501 fps=314 q=-0.0 size=N/A time=00:03:49.43 bitrate=N/A speed=13.1x    frame= 5685 fps=315 q=-0.0 size=N/A time=00:03:57.11 bitrate=N/A speed=13.1x    frame= 5868 fps=316 q=-0.0 size=N/A time=00:04:04.74 bitrate=N/A speed=13.2x    frame= 6050 fps=317 q=-0.0 size=N/A time=00:04:12.33 bitrate=N/A speed=13.2x    frame= 6237 fps=318 q=-0.0 size=N/A time=00:04:20.13 bitrate=N/A speed=13.3x    frame= 6421 fps=319 q=-0.0 size=N/A time=00:04:27.80 bitrate=N/A speed=13.3x    frame= 6587 fps=319 q=-0.0 size=N/A time=00:04:34.73 bitrate=N/A speed=13.3x    frame= 6752 fps=319 q=-0.0 size=N/A time=00:04:41.61 bitrate=N/A speed=13.3x    frame= 6931 fps=320 q=-0.0 size=N/A time=00:04:49.08 bitrate=N/A speed=13.3x    frame= 7062 fps=318 q=-0.0 size=N/A time=00:04:54.54 bitrate=N/A speed=13.3x    frame= 7230 fps=319 q=-0.0 size=N/A time=00:05:01.55 bitrate=N/A speed=13.3x    frame= 7400 fps=319 q=-0.0 size=N/A time=00:05:08.64 bitrate=N/A speed=13.3x    frame= 7550 fps=318 q=-0.0 size=N/A time=00:05:14.89 bitrate=N/A speed=13.3x    frame= 7716 fps=318 q=-0.0 size=N/A time=00:05:21.82 bitrate=N/A speed=13.3x    frame= 7897 fps=319 q=-0.0 size=N/A time=00:05:29.37 bitrate=N/A speed=13.3x    frame= 8076 fps=320 q=-0.0 size=N/A time=00:05:36.83 bitrate=N/A speed=13.3x    frame= 8259 fps=320 q=-0.0 size=N/A time=00:05:44.46 bitrate=N/A speed=13.4x    frame= 8444 fps=321 q=-0.0 size=N/A time=00:05:52.18 bitrate=N/A speed=13.4x    frame= 8630 fps=322 q=-0.0 size=N/A time=00:05:59.94 bitrate=N/A speed=13.4x    frame= 8803 fps=322 q=-0.0 size=N/A time=00:06:07.15 bitrate=N/A speed=13.4x    frame= 8969 fps=322 q=-0.0 size=N/A time=00:06:14.08 bitrate=N/A speed=13.4x    frame= 9153 fps=323 q=-0.0 size=N/A time=00:06:21.75 bitrate=N/A speed=13.5x    frame= 9322 fps=323 q=-0.0 size=N/A time=00:06:28.80 bitrate=N/A speed=13.5x    frame= 9478 fps=322 q=-0.0 size=N/A time=00:06:35.31 bitrate=N/A speed=13.4x    frame= 9665 fps=323 q=-0.0 size=N/A time=00:06:43.11 bitrate=N/A speed=13.5x    frame= 9848 fps=324 q=-0.0 size=N/A time=00:06:50.74 bitrate=N/A speed=13.5x    frame=10021 fps=324 q=-0.0 size=N/A time=00:06:57.95 bitrate=N/A speed=13.5x    frame=10203 fps=324 q=-0.0 size=N/A time=00:07:05.55 bitrate=N/A speed=13.5x    frame=10381 fps=325 q=-0.0 size=N/A time=00:07:12.97 bitrate=N/A speed=13.5x    frame=10566 fps=325 q=-0.0 size=N/A time=00:07:20.69 bitrate=N/A speed=13.6x    frame=10745 fps=326 q=-0.0 size=N/A time=00:07:28.15 bitrate=N/A speed=13.6x    frame=10923 fps=326 q=-0.0 size=N/A time=00:07:35.58 bitrate=N/A speed=13.6x    frame=11076 fps=325 q=-0.0 size=N/A time=00:07:41.96 bitrate=N/A speed=13.6x    frame=11234 fps=325 q=-0.0 size=N/A time=00:07:48.55 bitrate=N/A speed=13.6x    frame=11391 fps=325 q=-0.0 size=N/A time=00:07:55.09 bitrate=N/A speed=13.5x    frame=11566 fps=325 q=-0.0 size=N/A time=00:08:02.39 bitrate=N/A speed=13.6x    frame=11719 fps=325 q=-0.0 size=N/A time=00:08:08.77 bitrate=N/A speed=13.5x    frame=11901 fps=325 q=-0.0 size=N/A time=00:08:16.37 bitrate=N/A speed=13.6x    frame=12077 fps=325 q=-0.0 size=N/A time=00:08:23.71 bitrate=N/A speed=13.6x    frame=12244 fps=325 q=-0.0 size=N/A time=00:08:30.67 bitrate=N/A speed=13.6x    frame=12425 fps=326 q=-0.0 size=N/A time=00:08:38.22 bitrate=N/A speed=13.6x    frame=12596 fps=326 q=-0.0 size=N/A time=00:08:45.35 bitrate=N/A speed=13.6x    frame=12776 fps=326 q=-0.0 size=N/A time=00:08:52.86 bitrate=N/A speed=13.6x    frame=12961 fps=326 q=-0.0 size=N/A time=00:09:00.58 bitrate=N/A speed=13.6x    frame=13150 fps=327 q=-0.0 size=N/A time=00:09:08.46 bitrate=N/A speed=13.6x    frame=13323 fps=327 q=-0.0 size=N/A time=00:09:15.68 bitrate=N/A speed=13.6x    frame=13488 fps=327 q=-0.0 size=N/A time=00:09:22.56 bitrate=N/A speed=13.6x    frame=13662 fps=327 q=-0.0 size=N/A time=00:09:29.81 bitrate=N/A speed=13.6x    frame=13831 fps=327 q=-0.0 size=N/A time=00:09:36.86 bitrate=N/A speed=13.6x    frame=14015 fps=327 q=-0.0 size=N/A time=00:09:44.54 bitrate=N/A speed=13.7x    frame=14146 fps=327 q=-0.0 size=N/A time=00:09:50.00 bitrate=N/A speed=13.6x    frame=14325 fps=327 q=-0.0 size=N/A time=00:09:57.47 bitrate=N/A speed=13.6x    frame=14492 fps=327 q=-0.0 size=N/A time=00:10:04.43 bitrate=N/A speed=13.6x    frame=14655 fps=327 q=-0.0 size=N/A time=00:10:11.23 bitrate=N/A speed=13.6x    frame=14809 fps=326 q=-0.0 size=N/A time=00:10:17.65 bitrate=N/A speed=13.6x    frame=14971 fps=326 q=-0.0 size=N/A time=00:10:24.41 bitrate=N/A speed=13.6x    frame=15124 fps=326 q=-0.0 size=N/A time=00:10:30.79 bitrate=N/A speed=13.6x    frame=15289 fps=326 q=-0.0 size=N/A time=00:10:37.67 bitrate=N/A speed=13.6x    frame=15471 fps=326 q=-0.0 size=N/A time=00:10:45.26 bitrate=N/A speed=13.6x    frame=15652 fps=326 q=-0.0 size=N/A time=00:10:52.81 bitrate=N/A speed=13.6x    frame=15827 fps=326 q=-0.0 size=N/A time=00:11:00.11 bitrate=N/A speed=13.6x    frame=16000 fps=327 q=-0.0 size=N/A time=00:11:07.33 bitrate=N/A speed=13.6x    frame=16179 fps=327 q=-0.0 size=N/A time=00:11:14.79 bitrate=N/A speed=13.6x    frame=16312 fps=326 q=-0.0 size=N/A time=00:11:20.34 bitrate=N/A speed=13.6x    frame=16467 fps=326 q=-0.0 size=N/A time=00:11:26.81 bitrate=N/A speed=13.6x    frame=16618 fps=326 q=-0.0 size=N/A time=00:11:33.10 bitrate=N/A speed=13.6x    frame=16805 fps=326 q=-0.0 size=N/A time=00:11:40.90 bitrate=N/A speed=13.6x    frame=16981 fps=326 q=-0.0 size=N/A time=00:11:48.24 bitrate=N/A speed=13.6x    frame=17165 fps=326 q=-0.0 size=N/A time=00:11:55.92 bitrate=N/A speed=13.6x    frame=17328 fps=326 q=-0.0 size=N/A time=00:12:02.72 bitrate=N/A speed=13.6x    frame=17490 fps=326 q=-0.0 size=N/A time=00:12:09.47 bitrate=N/A speed=13.6x    frame=17641 fps=326 q=-0.0 size=N/A time=00:12:15.77 bitrate=N/A speed=13.6x    frame=17799 fps=326 q=-0.0 size=N/A time=00:12:22.36 bitrate=N/A speed=13.6x    frame=17977 fps=326 q=-0.0 size=N/A time=00:12:29.79 bitrate=N/A speed=13.6x    frame=18149 fps=326 q=-0.0 size=N/A time=00:12:36.96 bitrate=N/A speed=13.6x    frame=18304 fps=326 q=-0.0 size=N/A time=00:12:43.42 bitrate=N/A speed=13.6x    frame=18477 fps=326 q=-0.0 size=N/A time=00:12:50.64 bitrate=N/A speed=13.6x    frame=18623 fps=325 q=-0.0 size=N/A time=00:12:56.73 bitrate=N/A speed=13.6x    frame=18809 fps=326 q=-0.0 size=N/A time=00:13:04.49 bitrate=N/A speed=13.6x    frame=18994 fps=326 q=-0.0 size=N/A time=00:13:12.20 bitrate=N/A speed=13.6x    frame=19175 fps=326 q=-0.0 size=N/A time=00:13:19.75 bitrate=N/A speed=13.6x    frame=19355 fps=326 q=-0.0 size=N/A time=00:13:27.26 bitrate=N/A speed=13.6x    frame=19548 fps=327 q=-0.0 size=N/A time=00:13:35.31 bitrate=N/A speed=13.6x    frame=19726 fps=327 q=-0.0 size=N/A time=00:13:42.73 bitrate=N/A speed=13.6x    frame=19914 fps=327 q=-0.0 size=N/A time=00:13:50.57 bitrate=N/A speed=13.6x    frame=20088 fps=327 q=-0.0 size=N/A time=00:13:57.83 bitrate=N/A speed=13.6x    frame=20245 fps=327 q=-0.0 size=N/A time=00:14:04.38 bitrate=N/A speed=13.6x    frame=20398 fps=327 q=-0.0 size=N/A time=00:14:10.76 bitrate=N/A speed=13.6x    frame=20552 fps=326 q=-0.0 size=N/A time=00:14:17.18 bitrate=N/A speed=13.6x    frame=20706 fps=326 q=-0.0 size=N/A time=00:14:23.61 bitrate=N/A speed=13.6x    frame=20843 fps=326 q=-0.0 size=N/A time=00:14:29.32 bitrate=N/A speed=13.6x    frame=21001 fps=326 q=-0.0 size=N/A time=00:14:35.91 bitrate=N/A speed=13.6x    frame=21178 fps=326 q=-0.0 size=N/A time=00:14:43.29 bitrate=N/A speed=13.6x    frame=21357 fps=326 q=-0.0 size=N/A time=00:14:50.76 bitrate=N/A speed=13.6x    frame=21538 fps=326 q=-0.0 size=N/A time=00:14:58.31 bitrate=N/A speed=13.6x    frame=21735 fps=327 q=-0.0 size=N/A time=00:15:06.53 bitrate=N/A speed=13.6x    frame=21914 fps=327 q=-0.0 size=N/A time=00:15:13.99 bitrate=N/A speed=13.6x    frame=22101 fps=327 q=-0.0 size=N/A time=00:15:21.79 bitrate=N/A speed=13.6x    frame=22218 fps=326 q=-0.0 size=N/A time=00:15:26.67 bitrate=N/A speed=13.6x    frame=22340 fps=326 q=-0.0 size=N/A time=00:15:31.76 bitrate=N/A speed=13.6x    frame=22517 fps=326 q=-0.0 size=N/A time=00:15:39.14 bitrate=N/A speed=13.6x    frame=22691 fps=326 q=-0.0 size=N/A time=00:15:46.40 bitrate=N/A speed=13.6x    frame=22866 fps=326 q=-0.0 size=N/A time=00:15:53.70 bitrate=N/A speed=13.6x    frame=23052 fps=326 q=-0.0 size=N/A time=00:16:01.46 bitrate=N/A speed=13.6x    frame=23203 fps=326 q=-0.0 size=N/A time=00:16:07.80 bitrate=N/A speed=13.6x    frame=23359 fps=326 q=-0.0 size=N/A time=00:16:14.26 bitrate=N/A speed=13.6x    frame=23521 fps=326 q=-0.0 size=N/A time=00:16:21.02 bitrate=N/A speed=13.6x    frame=23692 fps=326 q=-0.0 size=N/A time=00:16:28.15 bitrate=N/A speed=13.6x    frame=23865 fps=326 q=-0.0 size=N/A time=00:16:35.36 bitrate=N/A speed=13.6x    frame=24049 fps=326 q=-0.0 size=N/A time=00:16:43.04 bitrate=N/A speed=13.6x    frame=24216 fps=326 q=-0.0 size=N/A time=00:16:50.00 bitrate=N/A speed=13.6x    frame=24391 fps=326 q=-0.0 size=N/A time=00:16:57.30 bitrate=N/A speed=13.6x    frame=24534 fps=326 q=-0.0 size=N/A time=00:17:03.27 bitrate=N/A speed=13.6x    frame=24717 fps=326 q=-0.0 size=N/A time=00:17:10.90 bitrate=N/A speed=13.6x    frame=24901 fps=326 q=-0.0 size=N/A time=00:17:18.57 bitrate=N/A speed=13.6x    frame=25077 fps=326 q=-0.0 size=N/A time=00:17:25.91 bitrate=N/A speed=13.6x    frame=25268 fps=326 q=-0.0 size=N/A time=00:17:33.88 bitrate=N/A speed=13.6x    frame=25451 fps=327 q=-0.0 size=N/A time=00:17:41.51 bitrate=N/A speed=13.6x    frame=25631 fps=327 q=-0.0 size=N/A time=00:17:49.02 bitrate=N/A speed=13.6x    frame=25805 fps=327 q=-0.0 size=N/A time=00:17:56.28 bitrate=N/A speed=13.6x    frame=25995 fps=327 q=-0.0 size=N/A time=00:18:04.20 bitrate=N/A speed=13.6x    frame=26175 fps=327 q=-0.0 size=N/A time=00:18:11.71 bitrate=N/A speed=13.7x    frame=26364 fps=328 q=-0.0 size=N/A time=00:18:19.59 bitrate=N/A speed=13.7x    frame=26532 fps=328 q=-0.0 size=N/A time=00:18:26.60 bitrate=N/A speed=13.7x    frame=26698 fps=327 q=-0.0 size=N/A time=00:18:33.52 bitrate=N/A speed=13.7x    frame=26825 fps=327 q=-0.0 size=N/A time=00:18:38.82 bitrate=N/A speed=13.6x    frame=26965 fps=327 q=-0.0 size=N/A time=00:18:44.66 bitrate=N/A speed=13.6x    frame=27106 fps=326 q=-0.0 size=N/A time=00:18:50.54 bitrate=N/A speed=13.6x    frame=27272 fps=326 q=-0.0 size=N/A time=00:18:57.46 bitrate=N/A speed=13.6x    frame=27439 fps=326 q=-0.0 size=N/A time=00:19:04.43 bitrate=N/A speed=13.6x    frame=27611 fps=326 q=-0.0 size=N/A time=00:19:11.60 bitrate=N/A speed=13.6x    frame=27791 fps=326 q=-0.0 size=N/A time=00:19:19.11 bitrate=N/A speed=13.6x    frame=27975 fps=327 q=-0.0 size=N/A time=00:19:26.79 bitrate=N/A speed=13.6x    frame=28150 fps=327 q=-0.0 size=N/A time=00:19:34.08 bitrate=N/A speed=13.6x    frame=28334 fps=327 q=-0.0 size=N/A time=00:19:41.76 bitrate=N/A speed=13.6x    frame=28516 fps=327 q=-0.0 size=N/A time=00:19:49.35 bitrate=N/A speed=13.6x    frame=28696 fps=327 q=-0.0 size=N/A time=00:19:56.86 bitrate=N/A speed=13.6x    frame=28862 fps=327 q=-0.0 size=N/A time=00:20:03.78 bitrate=N/A speed=13.6x    frame=29030 fps=327 q=-0.0 size=N/A time=00:20:10.79 bitrate=N/A speed=13.6x    frame=29148 fps=327 q=-0.0 size=N/A time=00:20:15.71 bitrate=N/A speed=13.6x    frame=29323 fps=327 q=-0.0 size=N/A time=00:20:23.01 bitrate=N/A speed=13.6x    frame=29482 fps=327 q=-0.0 size=N/A time=00:20:29.64 bitrate=N/A speed=13.6x    frame=29651 fps=327 q=-0.0 size=N/A time=00:20:36.69 bitrate=N/A speed=13.6x    frame=29803 fps=326 q=-0.0 size=N/A time=00:20:43.03 bitrate=N/A speed=13.6x    frame=29954 fps=326 q=-0.0 size=N/A time=00:20:49.33 bitrate=N/A speed=13.6x    frame=30112 fps=326 q=-0.0 size=N/A time=00:20:55.92 bitrate=N/A speed=13.6x    frame=30267 fps=326 q=-0.0 size=N/A time=00:21:02.38 bitrate=N/A speed=13.6x    frame=30422 fps=326 q=-0.0 size=N/A time=00:21:08.85 bitrate=N/A speed=13.6x    frame=30587 fps=326 q=-0.0 size=N/A time=00:21:15.73 bitrate=N/A speed=13.6x    frame=30781 fps=326 q=-0.0 size=N/A time=00:21:23.82 bitrate=N/A speed=13.6x    frame=30953 fps=326 q=-0.0 size=N/A time=00:21:30.99 bitrate=N/A speed=13.6x    frame=31131 fps=326 q=-0.0 size=N/A time=00:21:38.42 bitrate=N/A speed=13.6x    frame=31286 fps=326 q=-0.0 size=N/A time=00:21:44.88 bitrate=N/A speed=13.6x    frame=31441 fps=326 q=-0.0 size=N/A time=00:21:51.35 bitrate=N/A speed=13.6x    frame=31619 fps=326 q=-0.0 size=N/A time=00:21:58.77 bitrate=N/A speed=13.6x    frame=31795 fps=326 q=-0.0 size=N/A time=00:22:06.11 bitrate=N/A speed=13.6x    frame=31959 fps=326 q=-0.0 size=N/A time=00:22:12.95 bitrate=N/A speed=13.6x    frame=32127 fps=326 q=-0.0 size=N/A time=00:22:19.96 bitrate=N/A speed=13.6x    frame=32287 fps=326 q=-0.0 size=N/A time=00:22:26.63 bitrate=N/A speed=13.6x    frame=32483 fps=326 q=-0.0 size=N/A time=00:22:34.81 bitrate=N/A speed=13.6x    frame=32649 fps=326 q=-0.0 size=N/A time=00:22:41.73 bitrate=N/A speed=13.6x    frame=32799 fps=326 q=-0.0 size=N/A time=00:22:47.99 bitrate=N/A speed=13.6x    frame=32972 fps=326 q=-0.0 size=N/A time=00:22:55.20 bitrate=N/A speed=13.6x    frame=33147 fps=326 q=-0.0 size=N/A time=00:23:02.50 bitrate=N/A speed=13.6x    frame=33302 fps=326 q=-0.0 size=N/A time=00:23:08.97 bitrate=N/A speed=13.6x    frame=33463 fps=326 q=-0.0 size=N/A time=00:23:15.68 bitrate=N/A speed=13.6x    frame=33560 fps=325 q=-0.0 size=N/A time=00:23:19.73 bitrate=N/A speed=13.6x    frame=33697 fps=325 q=-0.0 size=N/A time=00:23:25.44 bitrate=N/A speed=13.6x    frame=33818 fps=325 q=-0.0 size=N/A time=00:23:30.49 bitrate=N/A speed=13.5x    frame=33945 fps=324 q=-0.0 size=N/A time=00:23:35.78 bitrate=N/A speed=13.5x    frame=34100 fps=324 q=-0.0 size=N/A time=00:23:42.25 bitrate=N/A speed=13.5x    frame=34243 fps=324 q=-0.0 size=N/A time=00:23:48.21 bitrate=N/A speed=13.5x    frame=34368 fps=323 q=-0.0 size=N/A time=00:23:53.43 bitrate=N/A speed=13.5x    frame=34515 fps=323 q=-0.0 size=N/A time=00:23:59.56 bitrate=N/A speed=13.5x    [Parsed_ssim_16 @ 000002c5987305c0] SSIM Y:0.994173 (22.345341) U:0.993995 (22.214945) V:0.993601 (21.938882) All:0.994048 (22.253248)
[out#0/null @ 000002c58b5d8a00] video:14903KiB audio:271276KiB subtitle:0KiB other streams:0KiB global headers:0KiB muxing overhead: unknown
frame=34683 fps=323 q=-0.0 Lsize=N/A time=00:24:06.57 bitrate=N/A speed=13.5x    
